<?xml version="1.0" encoding="utf-8"?>
<!-- Generator: Adobe Illustrator 13.0.0, SVG Export Plug-In . SVG Version: 6.00 Build 14948)  -->
<!DOCTYPE svg PUBLIC "-//W3C//DTD SVG 1.0//EN" "http://www.w3.org/TR/2001/REC-SVG-20010904/DTD/svg10.dtd">
<svg version="1.0" id="svg2" xmlns:svg="http://www.w3.org/2000/svg"
	 xmlns="http://www.w3.org/2000/svg" xmlns:xlink="http://www.w3.org/1999/xlink" x="0px" y="0px" width="595.275px"
	 height="841.89px" viewBox="0 0 595.275 841.89" enable-background="new 0 0 595.275 841.89" xml:space="preserve">
<g id="layer1" opacity="0.5">
	<g id="g2221" transform="translate(-41.702704,-177.72337)">
		<path id="path2235" fill="#FFFFFF" fill-opacity="0.5353" d="M445.852,811.256c-5.955-1.129-10.541-2.879-15.614-5.959
			c-6.787-4.119-10.327-8.379-18.828-22.656c-61.969-104.082-75.154-126.083-75.629-126.189c-0.562-0.126-4.075,5.598-55.367,90.197
			c-27.322,45.064-28.439,46.787-33.737,52.092c-4.399,4.404-6.558,6.012-10.945,8.145c-12.443,6.051-25.846,6.244-38.25,0.553
			c-2.903-1.332-10.316-6.471-20.893-14.482c-9.016-6.828-23.719-17.916-32.674-24.637c-8.955-6.723-17.344-13.486-18.643-15.031
			c-8.941-10.633-12.712-24.615-10.119-37.518c1.294-6.441,4.452-13.367,7.912-17.357c1.37-1.58,23.573-27.316,49.34-57.193
			c25.768-29.877,48.429-56.136,50.359-58.354c1.93-2.218,3.34-4.203,3.133-4.409c-0.397-0.397-13.381-3.435-101.058-23.639
			c-30.054-6.926-56.089-13.021-57.857-13.545c-10.9-3.234-20.179-13.246-24.64-26.588c-1.453-4.347-1.648-5.989-1.654-13.928
			c-0.006-8.643,0.087-9.281,2.34-16.072c1.29-3.889,6.388-20.559,11.328-37.044c4.94-16.485,9.62-31.239,10.4-32.786
			c3.504-6.949,10.188-14.555,16.69-18.99c10.57-7.21,24.003-10.593,34.188-8.609c2.677,0.521,29.658,11.756,79.145,32.956
			c41.295,17.691,75.169,32.058,75.276,31.926c0.106-0.131-0.044-2.987-0.334-6.346c-5.383-62.346-12.792-157.916-12.471-160.863
			c0.971-8.923,5.119-16.858,12.868-24.613c6.486-6.49,11.593-9.764,19.293-12.367l5.143-1.738l39.041-0.21
			c32.209-0.173,40.003-0.044,44.535,0.738c17.099,2.951,32.155,17.362,36.699,35.125c1.51,5.903,1.33,8.462-6.445,91.759
			c-3.737,40.037-6.795,73.667-6.795,74.732s0.25,1.938,0.556,1.938c0.305,0,7.031-2.714,14.946-6.032
			c85.021-35.632,135.503-56.462,138.284-57.059c4.538-0.973,13.268-0.319,18.821,1.41c13.654,4.251,25.814,13.865,31.843,25.175
			c2.291,4.298,22.657,70.707,24.208,78.935c2.305,12.23-2.193,25.968-11.786,36c-5.077,5.309-9.716,8.415-15.823,10.596
			c-2.207,0.788-38.51,9.487-80.674,19.33c-42.163,9.844-76.66,18.104-76.66,18.356c0,0.252,2.403,3.305,5.341,6.785
			c2.938,3.479,24.973,29.758,48.967,58.397c23.994,28.639,45.323,53.932,47.397,56.207c4.526,4.967,7.877,11.494,9.259,18.043
			c2.728,12.916-2.413,29.18-12.7,40.176c-4.312,4.609-61.065,46.725-67.729,50.26C467.511,811.287,455.378,813.063,445.852,811.256
			z"/>
		<path id="path2233" fill="#FFFFFF" fill-opacity="0.5353" d="M445.303,810.658c-9.26-1.963-16.505-5.961-22.581-12.463
			c-3.441-3.682-10.683-15.461-45.24-73.596c-22.629-38.066-41.433-69.21-41.786-69.208s-19.438,31.022-42.41,68.933
			c-40.23,66.393-41.958,69.121-46.929,74.094c-8.424,8.426-18.271,12.496-30.232,12.496c-12.57,0-18.471-2.666-37.071-16.754
			c-7.661-5.801-22.485-17.016-32.944-24.922c-15.107-11.418-19.631-15.184-22.008-18.32c-7.789-10.277-10.876-23.699-8.276-35.973
			c2.107-9.945,1.059-8.6,58.143-74.69c29.011-33.589,52.751-61.383,52.755-61.763c0.005-0.381-7.007-2.316-15.581-4.302
			c-8.574-1.985-44.518-10.274-79.875-18.421c-72.329-16.665-70.412-16.085-77.78-23.519c-7.97-8.041-11.91-17.676-12.354-30.21
			c-0.226-6.379-0.05-8.493,1.019-12.214c7.548-26.289,22.127-72.82,23.797-75.954c5.959-11.181,17.775-20.762,30.564-24.785
			c5.562-1.75,15.726-2.225,20.611-0.965c2.122,0.547,37.318,15.338,78.215,32.867c40.897,17.529,74.527,31.872,74.732,31.872
			c0.708,0,0.384-4.456-6.161-84.747c-7.462-91.545-7.316-85.149-2.184-95.599c6.183-12.59,18.495-22.199,32.024-24.994
			c4.173-0.862,10.749-1.016,43.042-1.006c42.765,0.012,43.424,0.068,52.26,4.437c9.928,4.909,17.391,12.596,22.205,22.874
			c2.875,6.137,3.83,10.311,3.83,16.732c0,2.627-3.191,39.135-7.092,81.129c-3.901,41.994-7.012,77.124-6.911,78.066
			c0.182,1.712,0.272,1.676,74.753-29.435c41.015-17.132,76.152-31.61,78.084-32.174c4.5-1.314,14.694-0.823,20.45,0.984
			c13.705,4.305,26.074,14.483,31.914,26.263c0.839,1.692,6.532,19.711,12.651,40.041l11.125,36.964l0.001,6.75
			c0.002,7.886-1.024,11.959-4.938,19.607c-1.951,3.813-3.99,6.498-7.887,10.384c-8.238,8.217-10.579,9.133-42.4,16.578
			c-128.378,30.036-129.857,30.393-129.78,31.374c0.067,0.862,95.903,115.814,102.838,123.351
			c7.281,7.914,10.102,19.754,7.605,31.93c-2.007,9.787-6.473,17.973-13.751,25.205c-4.317,4.291-59.352,45.074-65.216,48.33
			C467.985,810.653,454.762,812.664,445.303,810.658z"/>
		<path id="path2231" fill="#FFFFFF" fill-opacity="0.5353" d="M210.339,810.326c-10.549-1.707-14.128-3.777-38.825-22.451
			c-11.882-8.984-26.558-20.041-32.613-24.568c-11.765-8.797-15.398-12.578-18.884-19.654c-4.267-8.66-5.672-20.557-3.511-29.725
			c2.079-8.818,2.504-9.357,58.087-73.744c28.853-33.422,52.55-61.166,52.661-61.652c0.126-0.555-0.712-1.127-2.25-1.535
			c-1.348-0.358-37.599-8.77-80.558-18.692c-60.335-13.937-78.985-18.471-81.964-19.93c-16.788-8.216-25.624-32.405-18.938-51.84
			c0.691-2.008,5.633-18.289,10.982-36.18c5.5-18.392,10.557-34.115,11.638-36.179c2.599-4.96,8.026-11.405,12.874-15.286
			c4.937-3.952,14.16-8.581,19.807-9.94c4.852-1.168,15.149-1.336,18.923-0.309c1.414,0.385,36.357,15.173,77.651,32.863
			c41.294,17.69,75.257,31.986,75.473,31.77s-2.576-36.775-6.206-81.242c-4.306-52.759-6.495-82.635-6.3-85.991
			c0.545-9.381,4.259-16.917,12.381-25.126c5.554-5.613,10.402-8.782,17.796-11.632l4.704-1.813h43.071h43.072l4.178,1.49
			c6.596,2.352,12.759,6.356,18,11.696c5.364,5.464,8.411,10.143,10.688,16.414c3.383,9.32,3.582,5.247-4.551,92.742
			c-4.082,43.917-7.422,80.281-7.422,80.808c0,0.527,0.402,0.958,0.894,0.958s34.445-14.006,75.452-31.125
			c41.008-17.119,75.682-31.437,77.053-31.818c3.698-1.027,13.391-0.845,18.203,0.34c14.02,3.455,27.828,14.146,33.947,26.282
			c0.714,1.414,6.3,19.205,12.414,39.536c9.783,32.53,11.148,37.62,11.384,42.429c0.579,11.858-3.595,22.433-12.312,31.189
			c-5.27,5.293-9.892,8.384-15.178,10.149c-1.592,0.531-37.752,9.123-80.357,19.093c-42.605,9.97-77.572,18.23-77.705,18.356
			c-0.132,0.125-0.086,0.628,0.101,1.116c0.318,0.829,58.188,70.074,87.845,105.114c18.307,21.629,18.53,21.908,20.297,25.518
			c5.155,10.537,4.607,24.607-1.428,36.629c-2.229,4.441-6.583,10.414-9.926,13.619c-3.144,3.012-59.702,44.699-64.184,47.307
			c-8.419,4.898-21.957,6.893-32.12,4.729c-9.246-1.967-19.097-7.941-24.029-14.572c-1.47-1.975-21.035-34.451-43.479-72.168
			c-22.443-37.719-41.102-68.577-41.464-68.576c-0.362,0-19.462,30.998-42.444,68.885c-43.326,71.422-45.179,74.229-52.207,79.064
			C232.043,808.873,219.963,811.885,210.339,810.326z"/>
		<path id="path2229" fill="#FFFFFF" fill-opacity="0.5353" d="M447.576,810.219c-10.61-1.547-21.385-7.645-26.915-15.232
			c-1.21-1.66-20.628-33.969-43.15-71.801c-22.523-37.83-41.082-68.912-41.24-69.07c-0.158-0.159-0.821,0.273-1.474,0.961
			c-0.651,0.688-19.614,31.625-42.138,68.75c-22.524,37.125-42.127,69.023-43.562,70.885c-7.066,9.172-20.602,15.557-32.972,15.557
			c-12.455,0-18.713-3.029-40.5-19.604c-9.193-6.992-23.551-17.863-31.907-24.156c-8.356-6.295-16.384-12.83-17.841-14.527
			c-3.39-3.945-7.358-11.555-8.814-16.904c-1.569-5.762-1.577-16.975-0.015-22.15c1.523-5.051,3.873-9.65,6.743-13.205
			c1.284-1.59,25.261-29.451,53.281-61.912s50.946-59.302,50.946-59.646c0-0.345-0.365-0.766-0.811-0.938
			c-0.446-0.171-36.895-8.661-80.997-18.867c-59.36-13.737-81.147-19.022-83.886-20.352c-5.929-2.877-12.203-9.629-15.799-17.001
			c-5.724-11.735-6.417-23.105-2.194-36c1.216-3.712,6.352-20.579,11.413-37.481c6.931-23.146,9.771-31.714,11.506-34.714
			c1.267-2.191,4.908-6.587,8.09-9.769c6.451-6.451,12.184-10.06,20.571-12.951c4.523-1.559,6.072-1.77,12.857-1.75
			c6.175,0.018,8.419,0.287,11.25,1.347c1.944,0.728,36.321,15.385,76.393,32.571s73.433,31.247,74.136,31.247
			c1.161,0,1.243-0.308,0.897-3.375c-0.209-1.856-3.307-39.247-6.882-83.089c-6.407-78.558-6.487-79.786-5.51-84.643
			c2.572-12.787,11.659-24.065,24.573-30.498c9.521-4.743,10.791-4.848,55.758-4.624l38.742,0.193l5.54,1.983
			c16.882,6.044,29.609,22.071,30.588,38.517c0.214,3.601-1.828,28.17-6.812,81.964c-3.914,42.252-7.271,77.914-7.459,79.249
			c-0.234,1.663-0.078,2.528,0.496,2.749c0.462,0.177,34.529-13.756,75.707-30.961c41.178-17.206,76.604-31.708,78.726-32.227
			c7.729-1.891,17.923-0.162,27.643,4.689c9.539,4.761,17.894,12.511,22.388,20.767c0.933,1.713,5.769,16.682,10.747,33.264
			c4.979,16.582,9.905,32.837,10.947,36.123c3.641,11.48,3.732,20.05,0.313,29.467c-3.934,10.839-13.185,20.6-23.302,24.587
			c-1.76,0.694-38.034,9.401-80.61,19.35c-42.577,9.949-77.935,18.242-78.573,18.428c-0.64,0.187-1.073,0.733-0.965,1.214
			c0.194,0.86,95.117,114.435,102.186,122.265c7.188,7.963,9.734,14.371,9.777,24.607c0.055,13.016-5.029,24.748-14.797,34.15
			c-3.295,3.172-56.158,42.477-62.59,46.537c-4.012,2.533-10.258,4.801-15.98,5.801
			C456.203,811.022,453.391,811.065,447.576,810.219z"/>
		<path id="path2227" fill="#FFFFFF" fill-opacity="0.5353" d="M210.339,809.647c-9.392-1.309-14.329-3.969-31.549-16.992
			c-7.751-5.863-21.941-16.582-31.534-23.818c-9.592-7.238-18.866-14.719-20.609-16.627c-11.058-12.1-13.796-32.391-6.293-46.639
			c1.657-3.146,15.234-19.299,52.465-62.423c27.626-31.998,51.538-59.709,53.137-61.581c1.972-2.307,2.697-3.613,2.254-4.056
			c-0.36-0.36-16.099-4.225-34.977-8.59s-55.151-12.747-80.608-18.626c-31.399-7.252-47.403-11.231-49.759-12.372
			c-5.379-2.603-12.31-9.594-15.401-15.535c-3.878-7.455-5.44-13.811-5.395-21.955c0.022-3.936,0.431-8.09,0.982-9.964
			c10.852-36.939,22.523-74.116,24.154-76.94c5.871-10.166,15.713-18.319,27.313-22.624c4.898-1.818,5.851-1.95,14.25-1.978l9-0.03
			l75.536,32.409c41.544,17.825,76.187,32.54,76.982,32.7c1.256,0.252,1.446,0.023,1.446-1.739c0-1.116-2.893-37.443-6.428-80.727
			c-3.536-43.284-6.429-80.849-6.429-83.478c0-14.472,10.468-29.244,25.783-36.384c8.571-3.996,7.936-3.952,53.392-3.75
			l41.361,0.183l4.669,1.707c12.64,4.619,23.575,15.599,27.817,27.931c3.045,8.849,3.237,5.203-4.908,92.938
			c-4.131,44.506-7.316,81.114-7.078,81.353s1.509,0.123,2.823-0.257c2.073-0.598,49.85-20.486,128.391-53.444l22.5-9.442h8.357
			c7.45,0,8.918,0.193,13.528,1.777c8.021,2.755,14.634,6.96,20.864,13.265c3.005,3.042,6.448,7.208,7.651,9.258
			c1.615,2.754,5.129,13.415,13.451,40.821l11.265,37.093l0.02,8.036c0.019,7.09-0.179,8.591-1.673,12.751
			c-4.315,12.012-13.479,21.689-24.312,25.677c-1.96,0.721-38.409,9.459-81,19.417s-77.813,18.471-78.272,18.916
			c-0.677,0.658,8.649,12.126,49.762,61.185c27.828,33.207,51.976,61.895,53.662,63.75c14.631,16.105,9.241,45.482-11.146,60.756
			c-16.937,12.688-54.813,40.328-58.015,42.334c-5.996,3.76-12.928,5.811-20.955,6.199c-8.525,0.414-14.79-0.838-22.438-4.48
			c-4.409-2.102-6.381-3.549-10.207-7.5c-4.399-4.543-7.724-9.912-46.012-74.326c-30.728-51.693-41.569-69.429-42.443-69.429
			c-0.868,0-12.062,17.958-43.078,69.106c-38.867,64.1-42.255,69.465-46.733,74.027c-3.986,4.061-5.883,5.424-10.874,7.812
			C226.46,809.446,218.652,810.805,210.339,809.647z"/>
		<path id="path2225" fill="#FFFFFF" fill-opacity="0.5353" d="M447.718,809.631c-5.064-0.793-12.101-3.324-16.365-5.885
			c-7.981-4.791-8.747-5.953-53.114-80.562c-31.895-53.633-41.567-69.429-42.52-69.429c-0.946,0-10.933,16.001-43.125,69.106
			c-39.714,65.512-42.158,69.375-46.967,74.258c-7.801,7.92-16.159,11.697-27.252,12.316c-13.139,0.73-19.401-1.961-38.893-16.725
			c-7.778-5.891-22.532-17.041-32.786-24.779c-14.706-11.096-19.233-14.863-21.44-17.836c-7.566-10.193-10.479-22.213-8.17-33.703
			c2.198-10.939,0.378-8.58,58.498-75.816c36.709-42.468,53.02-61.786,52.912-62.667c-0.126-1.025-1.096-1.49-4.978-2.38
			c-87.045-19.976-153.626-35.492-156.968-36.58c-13.882-4.52-24.292-21.022-24.296-38.516c0-2.651,0.394-6.412,0.877-8.357
			c1.091-4.39,21.333-71.601,22.362-74.25c1.41-3.628,6.424-10.823,10.117-14.516c10.857-10.857,27.31-16.627,40.038-14.042
			c1.874,0.38,37.62,15.331,79.437,33.224c50.233,21.493,76.247,32.315,76.667,31.895c0.421-0.421-1.574-27.453-5.878-79.67
			c-3.584-43.468-6.552-81.781-6.596-85.14c-0.094-7.16,0.754-10.662,4.226-17.446c5.436-10.622,16.004-19.16,28.376-22.924
			c4.927-1.499,77.43-1.952,85.641-0.535c13.473,2.325,25.408,11.522,31.809,24.512c3.063,6.219,4.478,11.496,4.47,16.689
			c-0.003,2.135-3.312,39.449-7.354,82.919c-4.041,43.47-7.203,79.269-7.027,79.553c0.176,0.285,0.743,0.518,1.261,0.518
			s34.854-14.158,76.302-31.462c41.447-17.304,76.661-31.762,78.253-32.127c8.895-2.045,21.884,0.958,31.94,7.385
			c5.383,3.44,12.726,10.813,15.959,16.025c2.478,3.993,4.032,8.63,13.789,41.119c6.049,20.141,11.276,38.583,11.616,40.982
			c1.675,11.811-3.711,25.742-13.376,34.599c-8.233,7.544-5.482,6.736-90.786,26.647c-41.898,9.779-77.408,18.083-78.911,18.454
			c-1.902,0.469-2.731,1.011-2.731,1.787c0,0.923,96.167,116.45,104.27,125.261c3.303,3.592,6.092,9.611,7.38,15.926
			c2.558,12.539-2.854,28.414-13.211,38.758c-5.66,5.652-60.577,45.938-66.92,49.088c-2.662,1.324-6.508,2.828-8.546,3.342
			C460.803,809.885,452.308,810.35,447.718,809.631z"/>
		<path id="path2223" fill="#FFFFFF" fill-opacity="0.5353" d="M448.838,809.289c-32.972-4.977-40.545-42.896-57.885-65.818
			c-18.496-30.158-35.29-61.479-55.258-90.666c-32.344,46.633-57.693,98.188-90.676,144.393
			c-19.935,21.146-51.208,10.314-69.001-7.746c-20.261-19.486-55.576-30.418-58.996-62.135
			c-1.131-29.703,28.643-46.516,43.775-68.826c22.878-26.771,46.286-53.113,68.491-80.446
			c-27.083-10.019-57.782-13.931-86.204-21.609c-27.801-7.574-57.163-10.613-83.805-21.657
			c-29.537-22.537-10.338-60.023-2.084-88.115c4.222-29.269,24.948-62.787,59.045-56.787
			c52.252,20.666,103.081,44.976,155.607,64.851c-0.016-30.5-4.943-62.532-6.594-93.629c-1.336-26.708-5.783-53.54-4.72-80.191
			c7.97-32.73,44.827-34.834,72.184-32.452c26.827,0.237,62.085-5.652,75.974,24.232c9.878,25.967-0.896,54.569-1.027,81.628
			c-2.514,32.913-7.263,66.28-8.192,98.943c52.007-19.522,103.162-42.536,154.795-63.593c27.683-4.266,52.864,18.547,56.516,45.369
			c5.799,30.205,32.379,67.513,4.054,93.96c-25.267,16.861-58.205,16.411-86.707,25.659c-28.541,7.331-58.103,12.116-85.913,21.4
			c34.69,45.838,74.954,87.598,109.458,133.551c10.568,25.426-9.741,50.021-30.874,61.941
			C497.94,785.51,478.126,812.227,448.838,809.289z"/>
	</g>
</g>
</svg>
