<?xml version="1.0" encoding="utf-8"?>
<!-- Generator: Adobe Illustrator 13.0.0, SVG Export Plug-In . SVG Version: 6.00 Build 14948)  -->
<!DOCTYPE svg PUBLIC "-//W3C//DTD SVG 1.1//EN" "http://www.w3.org/Graphics/SVG/1.1/DTD/svg11.dtd">
<svg version="1.1" id="Ebene_1" xmlns="http://www.w3.org/2000/svg" xmlns:xlink="http://www.w3.org/1999/xlink" x="0px" y="0px"
	 width="143.016px" height="103.882px" viewBox="0 0 143.016 103.882" enable-background="new 0 0 143.016 103.882"
	 xml:space="preserve">
<g id="Ebene_1_1_">
	<g>
		<path display="none" d="M66.225,71.052c-2.083-8.602-15.729-12.445-31-11C43.393,54.089,76.74,58.984,66.225,71.052z"/>
		<path display="none" d="M126.226,90.052c-5.256,3.395-13.254,3.607-19,4c0.61-0.932,2.325-3.688-1-3
			c3.364-1.543,10.144,3.484,12-3c-16.802,10.521-14.955-31.328,2-19C118.785,79.494,127.395,79.884,126.226,90.052z"/>
		<path display="none" d="M84.226,69.052c1.543,2.918-1.92,9.385-5,11c-5.062-0.938-7.162-4.838-12-6
			C70.256,69.751,81.646,73.808,84.226,69.052z"/>
		<path display="none" d="M67.225,76.052c4.397,0.604,6.384,3.617,10,5c-4.019,4.984-8.729,9.273-12,15
			c-3.438-4.168-1.855-4.096-7-4C56.091,81.585,66.96,84.123,67.225,76.052z"/>
		<path display="none" d="M46.225,100.052c-3.078,0.746-1.922-2.744-5-2c-0.75,3.418,4.062,1.271,3,5c-8.677-0.105-22.38-8.453-34-3
			c-4.396-3.971,7.943-4.92,0-6c3.838-4.369,11.289,1.184,19,2C35.622,96.732,45.448,93.39,46.225,100.052z"/>
		<g id="XMLID_7_">
			<g>
				<path fill="#FFFFFF" d="M98.227,13.051c2.601,1.35-0.64,6.98,1,7l0.57,0.55c-1.16,1.04-2.32,1.93-2.57,2.45
					c-4.84,17.99-11,51.25-36.91,50.11c-0.43-0.02-0.87-0.05-1.32-0.09c1.57-16.1-22.88-23.62-30.66-11
					c-8.9,0.34-4.44-23.74-1.11-34.02c0.65-2,1.6-5.16,2.83-8.58c0.88-2.1,1.68-4.01,2.29-5.68c1.89-4.16,4.19-7.96,6.88-9.74
					c3.85-2.54,8.29-3.73,13-4c0.01,0,0.03,0,0.05,0c2.23-0.01,4.53,0.06,6.76,0.21C73.458,1.781,89.078,9.601,98.227,13.051z"/>
				<path d="M99.227,20.051c-1.64-0.02,1.601-5.65-1-7c-9.149-3.45-24.77-11.27-39.19-12.79c2.54,0.16,4.99,0.43,7.19,0.79
					C83.078,3.841,106.397,9.651,99.227,20.051z"/>
				<path d="M66.228,75.051c-1.89-0.351-3.88-0.5-5.95-0.551l0.04-1.34c25.91,1.141,32.07-32.12,36.91-50.11
					c0.25-0.52,1.41-1.41,2.57-2.45c1.61-1.45,3.22-3.17,2.43-4.55c9.261-2.37,30.29-12.43,40.771-7.15
					c0.779,12.16-29.62,11.69-41.771,14.15c3.13,8.2,12.57,18.76,15,31c4.13-2.87,5.09-8.9,9-12c3.511-0.18,3.29,3.38,6,4
					c0.88,11.22-7.109,13.56-12,19c1.3,10.449,10.29,16.37,8,29c-6.569,7.63-17.359,1.72-27,3c-8.989,1.199-20.43,9.43-36,6
					c-3.79-0.83-6.27-3.54-10-6C52.418,83.911,63.387,83.551,66.228,75.051z"/>
				<path d="M52.278,0.051c2.2-0.12,4.47-0.04,6.76,0.21C56.807,0.111,54.508,0.041,52.278,0.051z"/>
				<path d="M34.228,7.051c1.7-2.29,3.7-4.29,6-6c3.02-0.66,7.37-0.99,12-1c-4.71,0.27-9.15,1.46-13,4
					c-2.69,1.78-4.99,5.58-6.88,9.74c0.37-1,0.67-1.92,0.88-2.74c-3.89,4.93-28.86,46.24-33.23,39.85
					C2.778,41.681,32.338-1.499,34.228,7.051z"/>
				<path d="M30.057,19.471c0.68-1.87,1.44-3.81,2.29-5.68C31.738,15.461,30.938,17.371,30.057,19.471z"/>
				<path d="M27.228,28.051c-3.33,10.28-7.79,34.36,1.11,34.02c7.78-12.62,32.23-5.1,30.66,11c0.45,0.04,0.89,0.07,1.32,0.09
					l-0.04,1.34c-7.46-0.18-15.9,0.851-24.05-2.449c-2.34-0.94-3.37-4.261-6-6c-5.15-3.391-5.54-3.311-6.58-6.67
					c-4.41-14.26,2.02-29.431,6.41-39.911C28.827,22.891,27.878,26.051,27.228,28.051z"/>
			</g>
			<g>
			</g>
		</g>
		<g id="XMLID_6_">
			<g>
				<path fill="#FFFFFF" d="M35.228,61.431c5.06-5.221,25.72-0.94,19.2,9.62C53.137,63.531,44.688,60.161,35.228,61.431z"/>
			</g>
			<g>
			</g>
		</g>
		<g id="XMLID_5_">
			<g>
				<path fill="#FFFFFF" d="M129.227,49.051c0.54-3.54-3.54-2.46-3-6c2.04,0.3,1.96,2.71,4,3c2.351,10.45-15.38,21.07-2,8
					C127.397,51.231,129.637,51.461,129.227,49.051z"/>
			</g>
			<g>
			</g>
		</g>
		<g id="XMLID_4_">
			<g>
				<path fill="#FFFFFF" d="M106.227,91.051c3.36-1.54,10.141,3.489,12-3c-16.8,10.52-14.96-31.33,2-19
					c-1.439,10.439,7.17,10.83,6,21c-5.26,3.399-13.26,3.609-19,4C107.838,93.121,109.548,90.361,106.227,91.051z"/>
			</g>
			<g>
			</g>
		</g>
		<g id="XMLID_3_">
			<g>
				<path fill="#FFFFFF" d="M94.227,61.051c-3.779-0.37-7.729,8.38-7,6c5.561-12.431,8.62-27.37,11-43
					c8.931,10.74,16.86,22.48,18,41c-15.5-2.21-7.38,18.85-16,21c-0.319-9.44,5.3-17.86,3-26c-1.71,9.29-4.52,17.479-4,29
					c-2.8,2.87-6.71,4.63-10,7c-1.17-0.16-0.85-1.82-1-3c-4.109,0.56-4.66,4.68-9,5c-3.01,1.01-1.77-2.23-2-4
					c-2.38,0.63-4.66,1.35-5,4c-6.99-7.591,3.78-10.311,9-16C87.328,75.401,88.748,64.641,94.227,61.051z"/>
			</g>
			<g>
			</g>
		</g>
		<g id="XMLID_2_">
			<g>
				<path fill="#FFFFFF" d="M67.228,76.051c4.39,0.6,6.379,3.62,10,5c-4.02,4.989-8.729,9.27-12,15c-3.44-4.17-1.86-4.091-7-4
					C56.088,81.581,66.958,84.121,67.228,76.051z"/>
			</g>
			<g>
			</g>
		</g>
		<g id="XMLID_1_">
			<g>
				<path fill="#FFFFFF" d="M84.227,69.051c1.54,2.92-1.92,9.39-5,11c-5.06-0.94-7.16-4.841-12-6
					C70.258,69.75,81.647,73.811,84.227,69.051z"/>
			</g>
			<g>
			</g>
		</g>
		<path display="none" d="M126.226,43.053c2.039,0.294,1.96,2.706,4,3c2.347,10.453-15.381,21.068-2,8c-0.827-2.825,1.408-2.59,1-5
			C129.767,45.512,125.684,46.594,126.226,43.053z"/>
		<path display="none" d="M98.226,24.053c8.931,10.735,16.856,22.476,18,41c-15.503-2.207-7.383,18.848-16,21
			c-0.317-9.438,5.301-17.865,3-26c-1.708,9.293-4.522,17.479-4,29c-2.8,2.869-6.705,4.629-10,7c-1.173-0.16-0.845-1.822-1-3
			c-4.107,0.561-4.657,4.678-9,5c-3.01,1.01-1.772-2.227-2-4c-2.376,0.625-4.656,1.346-5,4c-6.993-7.592,3.78-10.314,9-16
			c6.104-6.65,7.523-17.408,13-21c-3.775-0.369-7.729,8.381-7,6C92.788,54.617,95.851,39.678,98.226,24.053z"/>
	</g>
	<g display="none">
		<g display="inline">
			<path fill="none" d="M44.669,28.653c9.13,4.025-0.548,7.973-3.68,6.541c-3.448-1.576-1.949-4.818,0.484-6.003
				c2.206-1.074,5.438-0.191,7.435-1.803c2.797-2.259-11.247-3.513-11.247-3.513"/>
			<path d="M43.901,29.123c1.602,0.75,5.063,2.538,2.89,4.571c-1.687,1.577-4.734,1.7-6.349,0.083
				c-1.071-1.073-0.281-2.687,0.562-3.565c1.176-1.222,3.234-1.092,4.797-1.247c1.379-0.136,3.62-0.589,4.342-1.965
				c1.271-2.429-10.597-3.54-12.107-3.677c-0.745-0.067-2.053,0.986-0.749,1.104c3.026,0.274,6.105,0.664,9.038,1.479
				c0.62,0.172,1.329,0.389,1.826,0.817c0.982,0.848-3.542,1.294-4.082,1.342c-2.287,0.202-4.399,1.093-5.627,3.108
				c-1.194,1.959,0.173,3.871,2.062,4.601c1.584,0.612,3.573,0.203,5.123-0.302c1.314-0.429,3.226-1.308,3.695-2.757
				c0.758-2.336-2.222-3.753-3.886-4.531C44.863,27.915,43.092,28.745,43.901,29.123L43.901,29.123z"/>
		</g>
	</g>
	<g display="none">
		<g display="inline">
			<path fill="none" d="M66.544,31.627c-10.561,1.785-0.796,7.487,2.335,6.056c3.448-1.576,1.949-4.818-0.483-6.003
				c-2.206-1.074-5.439-0.191-7.436-1.803c-2.797-2.259-1.265-6.1,2.247-6.513"/>
			<path d="M66.675,31.087c-1.79,0.343-6.822,1.253-5.712,4.172c0.838,2.201,4.635,3.39,6.752,3.186
				c2.974-0.286,5.125-2.782,3.44-5.576c-0.927-1.537-2.925-2.142-4.587-2.301c-1.921-0.184-3.755-0.165-5.245-1.578
				c-1.825-1.731-0.51-4.651,1.753-5.088c0.91-0.175,1.589-1.335,0.262-1.079c-5.729,1.104-6.312,7.609-0.125,8.603
				c2.123,0.34,4.096,0.135,5.771,1.736c1.979,1.89,0.406,4.59-2.239,4.023c-1.199-0.257-2.364-0.894-3.271-1.704
				c-2.252-2.011,1.385-3.017,2.938-3.315C67.323,31.992,68.002,30.833,66.675,31.087L66.675,31.087z"/>
		</g>
	</g>
	<ellipse display="none" stroke="#000000" cx="43.406" cy="32.935" rx="2.417" ry="1.813"/>
	<g display="none">
		<g display="inline">
			<path fill="none" d="M43.221,31.542c0.772-0.141,1.758,0.562,1.897,1.335"/>
			<path fill="#FFFFFF" d="M43.183,31.657c0.762-0.094,1.523,0.575,1.693,1.285c0.035,0.144,0.52,0.019,0.483-0.13
				c-0.22-0.919-1.19-1.499-2.103-1.386C43.04,31.453,42.846,31.699,43.183,31.657L43.183,31.657z"/>
		</g>
	</g>
	<ellipse display="none" stroke="#000000" cx="66.289" cy="35.745" rx="2.417" ry="1.813"/>
	<g display="none">
		<g display="inline">
			<path fill="none" d="M66.104,34.352c0.772-0.141,1.758,0.562,1.897,1.335"/>
			<path fill="#FFFFFF" d="M66.066,34.467c0.762-0.094,1.523,0.575,1.693,1.284c0.035,0.144,0.52,0.02,0.483-0.129
				c-0.22-0.92-1.189-1.5-2.102-1.387C65.923,34.263,65.729,34.509,66.066,34.467L66.066,34.467z"/>
		</g>
	</g>
	
		<ellipse transform="matrix(0.2641 -0.9645 0.9645 0.2641 -4.7222 65.6393)" stroke="#000000" cx="40.652" cy="35.914" rx="3.639" ry="2.8"/>
	
		<ellipse transform="matrix(0.2642 -0.9645 0.9645 0.2642 12.2489 89.5224)" fill="none" stroke="#000000" cx="64.796" cy="36.733" rx="7.838" ry="4.199"/>
	
		<ellipse transform="matrix(0.2641 -0.9645 0.9645 0.2641 7.3833 91.5027)" stroke="#000000" cx="63.653" cy="40.913" rx="3.639" ry="2.8"/>
	
		<ellipse transform="matrix(0.2642 -0.9645 0.9645 0.2642 0.1488 63.6599)" fill="none" stroke="#000000" cx="41.796" cy="31.732" rx="7.838" ry="4.199"/>
	<g>
		<g>
			<path fill="none" d="M37.978,23.125c2.799-1.959,9.797-1.68,12.315,1.12"/>
			<path d="M38.712,23.133c2.961-1.852,8.22-1.002,10.67,1.433c0.341,0.338,2.085-0.384,1.824-0.644
				c-3.315-3.294-10.15-3.191-13.963-0.807C36.448,23.613,38.386,23.337,38.712,23.133L38.712,23.133z"/>
		</g>
	</g>
	<g>
		<g>
			<path fill="none" d="M74.725,31.201c-1.085-4.45-8.899-5.86-12.589-5.86"/>
			<path d="M76.173,30.813c-1.454-4.745-8.422-5.823-12.649-5.881c-0.877-0.012-2.233,0.826-2.775,0.818
				c4.242,0.059,11.074,1.098,12.528,5.839C73.345,31.816,76.223,30.974,76.173,30.813L76.173,30.813z"/>
		</g>
	</g>
</g>
<g id="Ebene_2">
</g>
</svg>
