<?xml version="1.0" encoding="UTF-8" standalone="no"?>
<!-- Created with Inkscape (http://www.inkscape.org/) -->
<svg
   xmlns:dc="http://purl.org/dc/elements/1.1/"
   xmlns:cc="http://web.resource.org/cc/"
   xmlns:rdf="http://www.w3.org/1999/02/22-rdf-syntax-ns#"
   xmlns:svg="http://www.w3.org/2000/svg"
   xmlns="http://www.w3.org/2000/svg"
   xmlns:sodipodi="http://sodipodi.sourceforge.net/DTD/sodipodi-0.dtd"
   xmlns:inkscape="http://www.inkscape.org/namespaces/inkscape"
   width="200"
   height="250"
   id="svg2"
   sodipodi:version="0.32"
   inkscape:version="0.45.1"
   sodipodi:docbase="/home/robin/bodesuri/src/ui/ressourcen/karten"
   sodipodi:docname="joker.svg"
   inkscape:output_extension="org.inkscape.output.svg.inkscape"
   version="1.0"
   inkscape:export-filename="/home/robin/bodesuri/src/ui/ressourcen/karten/joker.png"
   inkscape:export-xdpi="36"
   inkscape:export-ydpi="36">
  <defs
     id="defs4" />
  <sodipodi:namedview
     id="base"
     pagecolor="#ffffff"
     bordercolor="#666666"
     borderopacity="1.0"
     gridtolerance="10000"
     guidetolerance="10"
     objecttolerance="10"
     inkscape:pageopacity="0.0"
     inkscape:pageshadow="2"
     inkscape:zoom="2.8284272"
     inkscape:cx="147.03724"
     inkscape:cy="131.98469"
     inkscape:document-units="px"
     inkscape:current-layer="layer1"
     showgrid="true"
     inkscape:grid-points="true"
     gridspacingx="1px"
     gridspacingy="1px"
     inkscape:window-width="1272"
     inkscape:window-height="962"
     inkscape:window-x="0"
     inkscape:window-y="31"
     width="200px"
     height="250px"
     showguides="true"
     inkscape:guide-bbox="true">
    <sodipodi:guide
       orientation="vertical"
       position="100.40916"
       id="guide2608" />
    <sodipodi:guide
       orientation="horizontal"
       position="124.75"
       id="guide2610" />
  </sodipodi:namedview>
  <metadata
     id="metadata7">
    <rdf:RDF>
      <cc:Work
         rdf:about="">
        <dc:format>image/svg+xml</dc:format>
        <dc:type
           rdf:resource="http://purl.org/dc/dcmitype/StillImage" />
      </cc:Work>
    </rdf:RDF>
  </metadata>
  <g
     inkscape:label="Layer 1"
     inkscape:groupmode="layer"
     id="layer1">
    <path
       style="fill:#ffffff;fill-opacity:1;fill-rule:evenodd;stroke:#000000;stroke-width:2;stroke-linecap:butt;stroke-linejoin:miter;stroke-opacity:1;stroke-miterlimit:4;stroke-dasharray:none"
       d="M 199,10 C 199,5 195,1 190,1 L 10,1 C 5,1 1,5 1,10 L 1,240 C 1,245 5,249 10,249 L 190,249 C 195,249 199,245 199,240 L 199,10 z "
       id="path3229"
       sodipodi:nodetypes="ccccccccc" />
    <text
       xml:space="preserve"
       style="font-size:32px;font-style:normal;font-variant:normal;font-weight:normal;font-stretch:normal;text-align:center;line-height:125%;writing-mode:lr-tb;text-anchor:middle;fill:#ff0000;fill-opacity:1;stroke:#ff0000;stroke-width:1px;stroke-linecap:butt;stroke-linejoin:miter;stroke-opacity:1;font-family:Nimbus Roman No9 L"
       x="46.65625"
       y="40"
       id="text3225"
       sodipodi:linespacing="125%"><tspan
         sodipodi:role="line"
         id="tspan3227"
         x="46.65625"
         y="40"
         style="font-size:32px;font-style:normal;font-variant:normal;font-weight:normal;font-stretch:normal;text-align:center;line-height:125%;writing-mode:lr-tb;text-anchor:middle;fill:#000000;fill-opacity:1;stroke:#000000;stroke-opacity:1;font-family:Nimbus Roman No9 L">Joker</tspan></text>
    <text
       xml:space="preserve"
       style="font-size:32px;font-style:normal;font-variant:normal;font-weight:normal;font-stretch:normal;text-align:center;line-height:125%;writing-mode:lr-tb;text-anchor:middle;fill:#ff0000;fill-opacity:1;stroke:#ff0000;stroke-width:1px;stroke-linecap:butt;stroke-linejoin:miter;stroke-opacity:1;font-family:Nimbus Roman No9 L"
       x="-151.9847"
       y="-213.752"
       id="text3633"
       sodipodi:linespacing="125%"
       transform="scale(-1,-1)"><tspan
         sodipodi:role="line"
         id="tspan3635"
         x="-151.9847"
         y="-213.752"
         style="font-size:32px;font-style:normal;font-variant:normal;font-weight:normal;font-stretch:normal;text-align:center;line-height:125%;writing-mode:lr-tb;text-anchor:middle;fill:#000000;fill-opacity:1;stroke:#000000;stroke-opacity:1;font-family:Nimbus Roman No9 L">Joker</tspan></text>
    <g
       id="g2859"
       transform="translate(28.492709,75.059187)">
      <g
         id="Ebene_1">
        <g
           id="g2775">
          <path
             id="path2777"
             d="M 66.225,71.052 C 64.142,62.45 50.497,58.607 35.225,60.052 C 43.393,54.089 76.74,58.984 66.225,71.052 z "
             clip-rule="evenodd"
             display="none"
             style="fill-rule:evenodd;display:none" />
          <path
             id="path2779"
             d="M 126.226,90.052 C 120.97,93.447 112.972,93.659 107.226,94.052 C 107.837,93.12 109.552,90.364 106.226,91.052 C 109.591,89.509 116.37,94.536 118.226,88.052 C 101.425,98.573 103.271,56.724 120.226,69.052 C 118.785,79.494 127.395,79.884 126.226,90.052 z "
             clip-rule="evenodd"
             display="none"
             style="fill-rule:evenodd;display:none" />
          <path
             id="path2781"
             d="M 84.226,69.052 C 85.769,71.97 82.306,78.437 79.226,80.052 C 74.164,79.114 72.064,75.214 67.226,74.052 C 70.256,69.751 81.646,73.808 84.226,69.052 z "
             clip-rule="evenodd"
             display="none"
             style="fill-rule:evenodd;display:none" />
          <path
             id="path2783"
             d="M 67.225,76.052 C 71.623,76.656 73.609,79.669 77.225,81.052 C 73.207,86.036 68.496,90.325 65.225,96.052 C 61.787,91.884 63.37,91.956 58.225,92.052 C 56.091,81.585 66.96,84.123 67.225,76.052 z "
             clip-rule="evenodd"
             display="none"
             style="fill-rule:evenodd;display:none" />
          <path
             id="path2785"
             d="M 46.225,100.052 C 43.147,100.798 44.303,97.308 41.225,98.052 C 40.475,101.47 45.288,99.323 44.225,103.052 C 35.549,102.947 21.845,94.599 10.225,100.052 C 5.83,96.081 18.169,95.132 10.225,94.052 C 14.063,89.683 21.514,95.236 29.225,96.052 C 35.622,96.732 45.448,93.39 46.225,100.052 z "
             clip-rule="evenodd"
             display="none"
             style="fill-rule:evenodd;display:none" />
          <path
             id="path2787"
             d="M 127.226,94.052 C 120.656,101.681 109.865,95.767 100.226,97.052 C 91.235,98.251 79.794,106.482 64.226,103.052 C 60.433,102.218 57.955,99.511 54.226,97.052 C 52.42,83.913 63.39,83.55 66.226,75.052 C 57.529,73.417 46.642,76.261 36.226,72.052 C 33.886,71.107 32.861,67.788 30.226,66.052 C 25.08,62.663 24.684,62.744 23.646,59.385 C 17.834,40.568 30.872,20.195 33.226,11.053 C 29.341,15.985 4.366,57.288 0,50.9 C 2.78,41.678 32.342,-1.5 34.225,7.053 C 35.93,4.758 37.93,2.758 40.225,1.053 C 46.37,-0.276 58.099,-0.291 66.225,1.053 C 83.081,3.841 106.4,9.648 99.225,20.053 C 97.592,20.034 100.828,14.402 98.225,13.053 C 84.496,7.874 56.212,-7.15 39.225,4.053 C 33.116,8.082 29.015,22.527 27.225,28.053 C 23.896,38.329 19.442,62.415 28.333,62.067 C 36.116,49.449 60.571,56.967 59,73.067 C 86.016,75.417 92.305,41.344 97.226,23.053 C 97.821,21.825 103.583,18.433 102.226,16.053 C 111.484,13.685 132.516,3.625 143,8.9 C 143.776,21.06 113.374,20.589 101.226,23.053 C 104.362,31.256 113.796,41.811 116.226,54.052 C 120.356,51.184 121.32,45.147 125.226,42.053 C 128.737,41.875 128.514,45.431 131.226,46.053 C 132.109,57.269 124.115,59.609 119.226,65.052 C 120.524,75.498 129.522,81.421 127.226,94.052 z M 120.226,69.052 C 103.271,56.724 101.425,98.573 118.226,88.052 C 116.37,94.536 109.591,89.509 106.226,91.052 C 109.552,90.364 107.837,93.12 107.226,94.052 C 112.972,93.659 120.97,93.447 126.226,90.052 C 127.395,79.884 118.785,79.494 120.226,69.052 z M 129.226,49.053 C 129.635,51.462 127.399,51.227 128.226,54.052 C 114.845,67.12 132.573,56.505 130.226,46.053 C 128.186,45.759 128.265,43.347 126.226,43.053 C 125.684,46.594 129.767,45.512 129.226,49.053 z M 87.226,67.052 C 86.497,69.433 90.451,60.683 94.226,61.052 C 88.75,64.644 87.33,75.402 81.226,82.052 C 76.007,87.738 65.233,90.46 72.226,98.052 C 72.57,95.398 74.85,94.677 77.226,94.052 C 77.454,95.825 76.217,99.062 79.226,98.052 C 83.569,97.73 84.119,93.613 88.226,93.052 C 88.382,94.23 88.053,95.892 89.226,96.052 C 92.521,93.681 96.427,91.921 99.226,89.052 C 98.704,77.531 101.518,69.345 103.226,60.052 C 105.527,68.187 99.909,76.615 100.226,86.052 C 108.844,83.9 100.723,62.845 116.226,65.052 C 115.083,46.529 107.157,34.788 98.226,24.053 C 95.851,39.678 92.788,54.617 87.226,67.052 z M 35.225,61.428 C 44.686,60.164 53.14,63.527 54.43,71.052 C 60.943,60.494 40.285,56.212 35.225,61.428 z M 67.225,74.052 C 72.063,75.214 74.164,79.115 79.225,80.052 C 82.305,78.437 85.768,71.97 84.225,69.052 C 81.646,73.808 70.256,69.751 67.225,74.052 z M 58.225,92.052 C 63.37,91.956 61.787,91.884 65.225,96.052 C 68.496,90.325 73.208,86.036 77.225,81.052 C 73.609,79.669 71.622,76.656 67.225,76.052 C 66.96,84.123 56.091,81.585 58.225,92.052 z "
             clip-rule="evenodd"
             style="fill-rule:evenodd" />
          <path
             id="path2789"
             d="M 126.226,43.053 C 128.265,43.347 128.186,45.759 130.226,46.053 C 132.573,56.505 114.845,67.12 128.226,54.052 C 127.399,51.227 129.635,51.462 129.226,49.053 C 129.767,45.512 125.684,46.594 126.226,43.053 z "
             clip-rule="evenodd"
             display="none"
             style="fill-rule:evenodd;display:none" />
          <path
             id="path2791"
             d="M 98.226,24.053 C 107.157,34.788 115.083,46.529 116.226,65.052 C 100.723,62.845 108.844,83.9 100.226,86.052 C 99.909,76.614 105.527,68.187 103.226,60.052 C 101.518,69.345 98.704,77.531 99.226,89.052 C 96.427,91.921 92.521,93.681 89.226,96.052 C 88.053,95.892 88.382,94.23 88.226,93.052 C 84.119,93.613 83.569,97.73 79.226,98.052 C 76.217,99.062 77.454,95.825 77.226,94.052 C 74.85,94.677 72.57,95.398 72.226,98.052 C 65.233,90.46 76.007,87.738 81.226,82.052 C 87.33,75.402 88.75,64.644 94.226,61.052 C 90.451,60.683 86.497,69.433 87.226,67.052 C 92.788,54.617 95.851,39.678 98.226,24.053 z "
             clip-rule="evenodd"
             display="none"
             style="fill-rule:evenodd;display:none" />
        </g>
        <g
           id="g2793"
           display="none"
           style="display:none">
          <g
             id="g2795"
             display="inline"
             style="display:inline">
            <path
               id="path2797"
               d="M 44.669,28.653 C 53.799,32.678 44.121,36.626 40.989,35.194 C 37.541,33.618 39.04,30.376 41.473,29.191 C 43.679,28.117 46.912,29 48.908,27.388 C 51.705,25.129 37.661,23.875 37.661,23.875"
               style="fill:none" />
            <path
               id="path2799"
               d="M 43.901,29.123 C 45.503,29.873 48.965,31.661 46.791,33.694 C 45.104,35.271 42.056,35.394 40.442,33.777 C 39.371,32.704 40.161,31.09 41.005,30.212 C 42.18,28.99 44.239,29.12 45.802,28.965 C 47.18,28.829 49.422,28.376 50.143,27 C 51.415,24.571 39.547,23.46 38.036,23.323 C 37.291,23.256 35.983,24.309 37.287,24.427 C 40.313,24.701 43.392,25.091 46.325,25.905 C 46.945,26.077 47.654,26.294 48.151,26.722 C 49.134,27.57 44.609,28.016 44.069,28.064 C 41.782,28.266 39.67,29.157 38.442,31.172 C 37.248,33.131 38.615,35.043 40.505,35.773 C 42.089,36.385 44.078,35.976 45.628,35.471 C 46.942,35.042 48.853,34.163 49.323,32.714 C 50.081,30.378 47.101,28.961 45.437,28.183 C 44.863,27.915 43.092,28.745 43.901,29.123 L 43.901,29.123 z " />
          </g>
        </g>
        <g
           id="g2801"
           display="none"
           style="display:none">
          <g
             id="g2803"
             display="inline"
             style="display:inline">
            <path
               id="path2805"
               d="M 66.544,31.627 C 55.983,33.412 65.748,39.114 68.879,37.683 C 72.327,36.107 70.828,32.865 68.395,31.68 C 66.189,30.606 62.956,31.489 60.96,29.877 C 58.163,27.618 59.695,23.777 63.207,23.364"
               style="fill:none" />
            <path
               id="path2807"
               d="M 66.675,31.087 C 64.885,31.43 59.852,32.34 60.963,35.259 C 61.801,37.46 65.597,38.649 67.715,38.445 C 70.688,38.159 72.84,35.663 71.155,32.869 C 70.228,31.332 68.23,30.727 66.568,30.568 C 64.647,30.384 62.813,30.403 61.323,28.99 C 59.498,27.259 60.813,24.339 63.076,23.902 C 63.986,23.727 64.665,22.567 63.338,22.823 C 57.609,23.928 57.025,30.432 63.213,31.426 C 65.336,31.766 67.308,31.561 68.984,33.162 C 70.963,35.052 69.39,37.752 66.745,37.185 C 65.546,36.928 64.381,36.291 63.474,35.481 C 61.222,33.47 64.859,32.464 66.413,32.166 C 67.323,31.992 68.002,30.833 66.675,31.087 L 66.675,31.087 z " />
          </g>
        </g>
        <ellipse
           id="ellipse2809"
           ry="1.813"
           rx="2.4170001"
           cy="32.935001"
           cx="43.405998"
           clip-rule="evenodd"
           display="none"
           sodipodi:cx="43.405998"
           sodipodi:cy="32.935001"
           sodipodi:rx="2.4170001"
           sodipodi:ry="1.813"
           style="fill-rule:evenodd;stroke:#000000;display:none" />
        <g
           id="g2811"
           display="none"
           style="display:none">
          <g
             id="g2813"
             display="inline"
             style="display:inline">
            <path
               id="path2815"
               d="M 43.221,31.542 C 43.994,31.401 44.979,32.104 45.119,32.877"
               style="fill:none" />
            <path
               id="path2817"
               d="M 43.183,31.657 C 43.945,31.563 44.707,32.232 44.877,32.942 C 44.912,33.086 45.396,32.961 45.36,32.812 C 45.14,31.893 44.17,31.313 43.258,31.426 C 43.04,31.453 42.846,31.699 43.183,31.657 L 43.183,31.657 z "
               style="fill:#ffffff" />
          </g>
        </g>
        <ellipse
           id="ellipse2819"
           ry="1.813"
           rx="2.4170001"
           cy="35.744999"
           cx="66.289001"
           clip-rule="evenodd"
           display="none"
           sodipodi:cx="66.289001"
           sodipodi:cy="35.744999"
           sodipodi:rx="2.4170001"
           sodipodi:ry="1.813"
           style="fill-rule:evenodd;stroke:#000000;display:none" />
        <g
           id="g2821"
           display="none"
           style="display:none">
          <g
             id="g2823"
             display="inline"
             style="display:inline">
            <path
               id="path2825"
               d="M 66.104,34.352 C 66.877,34.211 67.862,34.914 68.002,35.687"
               style="fill:none" />
            <path
               id="path2827"
               d="M 66.066,34.467 C 66.828,34.373 67.59,35.042 67.76,35.751 C 67.795,35.895 68.279,35.771 68.243,35.622 C 68.023,34.702 67.053,34.122 66.141,34.235 C 65.923,34.263 65.729,34.509 66.066,34.467 L 66.066,34.467 z "
               style="fill:#ffffff" />
          </g>
        </g>
        <ellipse
           id="ellipse2829"
           ry="3.6389999"
           rx="2.8"
           cy="35.915001"
           cx="40.650002"
           clip-rule="evenodd"
           transform="matrix(0.9645,0.2641,-0.2641,0.9645,10.9304,-9.4618)"
           sodipodi:cx="40.650002"
           sodipodi:cy="35.915001"
           sodipodi:rx="2.8"
           sodipodi:ry="3.6389999"
           style="fill-rule:evenodd;stroke:#000000" />
        <ellipse
           id="ellipse2831"
           ry="7.8379998"
           rx="4.1989999"
           cy="36.73"
           cx="64.795998"
           clip-rule="evenodd"
           transform="matrix(0.9645,0.2642,-0.2642,0.9645,12.0043,-15.8117)"
           sodipodi:cx="64.795998"
           sodipodi:cy="36.73"
           sodipodi:rx="4.1989999"
           sodipodi:ry="7.8379998"
           style="fill:none;fill-rule:evenodd;stroke:#000000" />
        <ellipse
           id="ellipse2833"
           ry="3.6389999"
           rx="2.8"
           cy="40.915001"
           cx="63.650002"
           clip-rule="evenodd"
           transform="matrix(0.9645,0.2641,-0.2641,0.9645,13.068,-15.3595)"
           sodipodi:cx="63.650002"
           sodipodi:cy="40.915001"
           sodipodi:rx="2.8"
           sodipodi:ry="3.6389999"
           style="fill-rule:evenodd;stroke:#000000" />
        <ellipse
           id="ellipse2835"
           ry="7.8379998"
           rx="4.1989999"
           cy="31.73"
           cx="41.796001"
           clip-rule="evenodd"
           transform="matrix(0.9645,0.2642,-0.2642,0.9645,9.8665,-9.9137)"
           sodipodi:cx="41.796001"
           sodipodi:cy="31.73"
           sodipodi:rx="4.1989999"
           sodipodi:ry="7.8379998"
           style="fill:none;fill-rule:evenodd;stroke:#000000" />
        <g
           id="g2837">
          <g
             id="g2839">
            <path
               id="path2841"
               d="M 37.978,23.125 C 40.777,21.166 47.775,21.445 50.294,24.245"
               style="fill:none" />
            <path
               id="path2843"
               d="M 38.712,23.133 C 41.673,21.281 46.931,22.131 49.382,24.566 C 49.722,24.904 51.467,24.182 51.206,23.922 C 47.89,20.628 41.055,20.731 37.243,23.115 C 36.448,23.613 38.386,23.337 38.712,23.133 L 38.712,23.133 z " />
          </g>
        </g>
        <g
           id="g2845">
          <g
             id="g2847">
            <path
               id="path2849"
               d="M 74.725,31.201 C 73.64,26.751 65.826,25.341 62.136,25.341"
               style="fill:none" />
            <path
               id="path2851"
               d="M 76.173,30.813 C 74.719,26.068 67.751,24.99 63.523,24.932 C 62.646,24.92 61.29,25.758 60.748,25.75 C 64.99,25.809 71.822,26.848 73.276,31.589 C 73.345,31.816 76.223,30.974 76.173,30.813 L 76.173,30.813 z " />
          </g>
        </g>
      </g>
      <g
         id="Ebene_2" />
    </g>
  </g>
</svg>
